<svg width="600" height="500" viewBox="0 0 600 500" xmlns="http://www.w3.org/2000/svg" style="background:#ffffff; font-family:'Inter', sans-serif;"><rect x="60" y="60" width="480" height="380" fill="#f8fafc" stroke="#e2e8f0" stroke-width="1.5"/><line x1="156" y1="60" x2="156" y2="440" stroke="#e2e8f0" stroke-dasharray="3,3"/><text x="156" y="460" font-size="11" text-anchor="middle" fill="#64748b">0.2</text><line x1="60" y1="364" x2="540" y2="364" stroke="#e2e8f0" stroke-dasharray="3,3"/><text x="50" y="368" font-size="11" text-anchor="end" fill="#64748b">0.2</text><line x1="252" y1="60" x2="252" y2="440" stroke="#e2e8f0" stroke-dasharray="3,3"/><text x="252" y="460" font-size="11" text-anchor="middle" fill="#64748b">0.4</text><line x1="60" y1="288" x2="540" y2="288" stroke="#e2e8f0" stroke-dasharray="3,3"/><text x="50" y="292" font-size="11" text-anchor="end" fill="#64748b">0.4</text><line x1="348.00000000000006" y1="60" x2="348.00000000000006" y2="440" stroke="#e2e8f0" stroke-dasharray="3,3"/><text x="348.00000000000006" y="460" font-size="11" text-anchor="middle" fill="#64748b">0.6</text><line x1="60" y1="211.99999999999997" x2="540" y2="211.99999999999997" stroke="#e2e8f0" stroke-dasharray="3,3"/><text x="50" y="215.99999999999997" font-size="11" text-anchor="end" fill="#64748b">0.6</text><line x1="444" y1="60" x2="444" y2="440" stroke="#e2e8f0" stroke-dasharray="3,3"/><text x="444" y="460" font-size="11" text-anchor="middle" fill="#64748b">0.8</text><line x1="60" y1="136" x2="540" y2="136" stroke="#e2e8f0" stroke-dasharray="3,3"/><text x="50" y="140" font-size="11" text-anchor="end" fill="#64748b">0.8</text><line x1="540" y1="60" x2="540" y2="440" stroke="#e2e8f0" stroke-dasharray="3,3"/><text x="540" y="460" font-size="11" text-anchor="middle" fill="#64748b">1.0</text><line x1="60" y1="60" x2="540" y2="60" stroke="#e2e8f0" stroke-dasharray="3,3"/><text x="50" y="64" font-size="11" text-anchor="end" fill="#64748b">1.0</text><text x="60" y="460" font-size="11" text-anchor="middle" fill="#64748b">0.0</text><text x="50" y="444" font-size="11" text-anchor="end" fill="#64748b">0.0</text><line x1="60" y1="440" x2="540" y2="60" stroke="#94a3b8" stroke-width="1.5" stroke-dasharray="5,5"/><text x="390" y="90" font-size="10" fill="#64748b" transform="rotate(-38 390 90)">Perfect Calibration</text><path d="M 75.9,440.0 L 134.2,440.0 L 184.5,440.0 L 224.7,440.0 L 284.5,440.0 L 319.5,439.3 L 364.4,429.2 L 406.1,425.3" fill="none" stroke="#64748b" stroke-width="2" /><circle cx="75.9" cy="440.0" r="3" fill="#64748b" stroke="#ffffff" stroke-width="1" /><circle cx="134.2" cy="440.0" r="3" fill="#64748b" stroke="#ffffff" stroke-width="1" /><circle cx="184.5" cy="440.0" r="3" fill="#64748b" stroke="#ffffff" stroke-width="1" /><circle cx="224.7" cy="440.0" r="3" fill="#64748b" stroke="#ffffff" stroke-width="1" /><circle cx="284.5" cy="440.0" r="3" fill="#64748b" stroke="#ffffff" stroke-width="1" /><circle cx="319.5" cy="439.3" r="3" fill="#64748b" stroke="#ffffff" stroke-width="1" /><circle cx="364.4" cy="429.2" r="3" fill="#64748b" stroke="#ffffff" stroke-width="1" /><circle cx="406.1" cy="425.3" r="3" fill="#64748b" stroke="#ffffff" stroke-width="1" /><path d="M 74.1,439.3 L 128.7,437.9 L 180.7,436.7 L 227.0,438.7 L 276.8,439.0 L 323.0,439.2 L 368.0,437.6 L 417.8,434.1 L 457.2,434.1 L 501.4,440.0" fill="none" stroke="#0ea5e9" stroke-width="2" /><circle cx="74.1" cy="439.3" r="3" fill="#0ea5e9" stroke="#ffffff" stroke-width="1" /><circle cx="128.7" cy="437.9" r="3" fill="#0ea5e9" stroke="#ffffff" stroke-width="1" /><circle cx="180.7" cy="436.7" r="3" fill="#0ea5e9" stroke="#ffffff" stroke-width="1" /><circle cx="227.0" cy="438.7" r="3" fill="#0ea5e9" stroke="#ffffff" stroke-width="1" /><circle cx="276.8" cy="439.0" r="3" fill="#0ea5e9" stroke="#ffffff" stroke-width="1" /><circle cx="323.0" cy="439.2" r="3" fill="#0ea5e9" stroke="#ffffff" stroke-width="1" /><circle cx="368.0" cy="437.6" r="3" fill="#0ea5e9" stroke="#ffffff" stroke-width="1" /><circle cx="417.8" cy="434.1" r="3" fill="#0ea5e9" stroke="#ffffff" stroke-width="1" /><circle cx="457.2" cy="434.1" r="3" fill="#0ea5e9" stroke="#ffffff" stroke-width="1" /><circle cx="501.4" cy="440.0" r="3" fill="#0ea5e9" stroke="#ffffff" stroke-width="1" /><path d="M 85.3,438.4 L 129.9,439.1 L 178.5,438.7 L 226.2,439.5 L 273.1,438.0 L 321.8,439.2 L 369.5,438.6 L 413.8,436.1 L 462.5,440.0" fill="none" stroke="#ec4899" stroke-width="2" /><circle cx="85.3" cy="438.4" r="3" fill="#ec4899" stroke="#ffffff" stroke-width="1" /><circle cx="129.9" cy="439.1" r="3" fill="#ec4899" stroke="#ffffff" stroke-width="1" /><circle cx="178.5" cy="438.7" r="3" fill="#ec4899" stroke="#ffffff" stroke-width="1" /><circle cx="226.2" cy="439.5" r="3" fill="#ec4899" stroke="#ffffff" stroke-width="1" /><circle cx="273.1" cy="438.0" r="3" fill="#ec4899" stroke="#ffffff" stroke-width="1" /><circle cx="321.8" cy="439.2" r="3" fill="#ec4899" stroke="#ffffff" stroke-width="1" /><circle cx="369.5" cy="438.6" r="3" fill="#ec4899" stroke="#ffffff" stroke-width="1" /><circle cx="413.8" cy="436.1" r="3" fill="#ec4899" stroke="#ffffff" stroke-width="1" /><circle cx="462.5" cy="440.0" r="3" fill="#ec4899" stroke="#ffffff" stroke-width="1" /><path d="M 69.6,438.7 L 128.5,438.4 L 177.5,438.7 L 227.9,439.3 L 272.3,440.0 L 325.1,436.9 L 369.9,440.0 L 421.5,435.5 L 457.8,440.0 L 498.7,440.0" fill="none" stroke="#f59e0b" stroke-width="2" /><circle cx="69.6" cy="438.7" r="3" fill="#f59e0b" stroke="#ffffff" stroke-width="1" /><circle cx="128.5" cy="438.4" r="3" fill="#f59e0b" stroke="#ffffff" stroke-width="1" /><circle cx="177.5" cy="438.7" r="3" fill="#f59e0b" stroke="#ffffff" stroke-width="1" /><circle cx="227.9" cy="439.3" r="3" fill="#f59e0b" stroke="#ffffff" stroke-width="1" /><circle cx="272.3" cy="440.0" r="3" fill="#f59e0b" stroke="#ffffff" stroke-width="1" /><circle cx="325.1" cy="436.9" r="3" fill="#f59e0b" stroke="#ffffff" stroke-width="1" /><circle cx="369.9" cy="440.0" r="3" fill="#f59e0b" stroke="#ffffff" stroke-width="1" /><circle cx="421.5" cy="435.5" r="3" fill="#f59e0b" stroke="#ffffff" stroke-width="1" /><circle cx="457.8" cy="440.0" r="3" fill="#f59e0b" stroke="#ffffff" stroke-width="1" /><circle cx="498.7" cy="440.0" r="3" fill="#f59e0b" stroke="#ffffff" stroke-width="1" /><path d="M 297.3,438.5 L 303.5,438.8" fill="none" stroke="#8b5cf6" stroke-width="2" /><circle cx="297.3" cy="438.5" r="3" fill="#8b5cf6" stroke="#ffffff" stroke-width="1" /><circle cx="303.5" cy="438.8" r="3" fill="#8b5cf6" stroke="#ffffff" stroke-width="1" /><text x="300" y="35" font-size="14" font-weight="bold" text-anchor="middle" fill="#1e293b">Calibration Curve Comparison (Multi-Model)</text><text x="300" y="485" font-size="12" text-anchor="middle" fill="#334155">Mean Predicted Probability</text><text x="18" y="250" font-size="12" text-anchor="middle" transform="rotate(-90 18 250)" fill="#334155">Fraction of Positive Cases</text><rect x="80" y="410" width="12" height="12" fill="#8b5cf6" rx="2"/><text x="100" y="420" font-size="11" fill="#334155" font-weight="500">Stacking Ensemble (Brier = 0.2546)</text><rect x="80" y="390" width="12" height="12" fill="#f59e0b" rx="2"/><text x="100" y="400" font-size="11" fill="#334155" font-weight="500">XGBoost (Brier = 0.0263)</text><rect x="80" y="370" width="12" height="12" fill="#ec4899" rx="2"/><text x="100" y="380" font-size="11" fill="#334155" font-weight="500">CatBoost (Brier = 0.0807)</text><rect x="80" y="350" width="12" height="12" fill="#0ea5e9" rx="2"/><text x="100" y="360" font-size="11" fill="#334155" font-weight="500">LightGBM (Brier = 0.0678)</text><rect x="80" y="330" width="12" height="12" fill="#64748b" rx="2"/><text x="100" y="340" font-size="11" fill="#334155" font-weight="500">Logistic Regression (Brier = 0.2698)</text></svg>