<svg width="600" height="450" viewBox="0 0 600 450" xmlns="http://www.w3.org/2000/svg" style="background:#ffffff; font-family:'Inter', sans-serif;"><text x="300" y="30" font-size="14" font-weight="bold" fill="#1e293b" text-anchor="middle">Feature Drift: Population Stability Index (PSI)</text><text x="300" y="50" font-size="11" fill="#64748b" text-anchor="middle">Comparing IEEE-CIS (Training Domain) vs. Sparkov (Testing Domain)</text><line x1="180" y1="70" x2="180" y2="380" stroke="#cbd5e1" stroke-width="1.5"/><text x="165" y="103" font-size="11" font-weight="600" fill="#475569" text-anchor="end">TransactionAmt</text><rect x="180" y="70" width="380" height="58" fill="#ef4444" opacity="0.85" rx="3"/><rect x="180" y="70" width="380" height="58" fill="none" stroke="#ef4444" stroke-width="1" rx="3"/><text x="568" y="103" font-size="11" font-weight="bold" fill="#475569">0.853</text><text x="165" y="171" font-size="11" font-weight="600" fill="#475569" text-anchor="end">hour_of_day</text><rect x="180" y="138" width="273.5837140076735" height="58" fill="#ef4444" opacity="0.85" rx="3"/><rect x="180" y="138" width="273.5837140076735" height="58" fill="none" stroke="#ef4444" stroke-width="1" rx="3"/><text x="461.5837140076735" y="171" font-size="11" font-weight="bold" fill="#475569">0.360</text><text x="165" y="239" font-size="11" font-weight="600" fill="#475569" text-anchor="end">day_of_week</text><rect x="180" y="206" width="380" height="58" fill="#ef4444" opacity="0.85" rx="3"/><rect x="180" y="206" width="380" height="58" fill="none" stroke="#ef4444" stroke-width="1" rx="3"/><text x="568" y="239" font-size="11" font-weight="bold" fill="#475569">3.217</text><text x="165" y="307" font-size="11" font-weight="600" fill="#475569" text-anchor="end">spend_ratio_avg</text><rect x="180" y="274" width="380" height="58" fill="#ef4444" opacity="0.85" rx="3"/><rect x="180" y="274" width="380" height="58" fill="none" stroke="#ef4444" stroke-width="1" rx="3"/><text x="568" y="307" font-size="11" font-weight="bold" fill="#475569">0.769</text><text x="165" y="375" font-size="11" font-weight="600" fill="#475569" text-anchor="end">anomaly_score</text><rect x="180" y="342" width="380" height="58" fill="#ef4444" opacity="0.85" rx="3"/><rect x="180" y="342" width="380" height="58" fill="none" stroke="#ef4444" stroke-width="1" rx="3"/><text x="568" y="375" font-size="11" font-weight="bold" fill="#475569">2.007</text><line x1="256" y1="70" x2="256" y2="380" stroke="#f97316" stroke-dasharray="3,3" stroke-width="1.2"/><text x="256" y="62" font-size="9" font-weight="bold" fill="#f97316" text-anchor="middle">Mod Drift (0.1)</text><line x1="370" y1="70" x2="370" y2="380" stroke="#ef4444" stroke-dasharray="3,3" stroke-width="1.2"/><text x="370" y="62" font-size="9" font-weight="bold" fill="#ef4444" text-anchor="middle">Sig Drift (0.25)</text><line x1="180" y1="380" x2="560" y2="380" stroke="#cbd5e1" stroke-width="1.5"/><line x1="180" y1="380" x2="180" y2="385" stroke="#cbd5e1"/><text x="180" y="400" font-size="10" fill="#64748b" text-anchor="middle">0.0</text><line x1="256" y1="380" x2="256" y2="385" stroke="#cbd5e1"/><text x="256" y="400" font-size="10" fill="#64748b" text-anchor="middle">0.1</text><line x1="332" y1="380" x2="332" y2="385" stroke="#cbd5e1"/><text x="332" y="400" font-size="10" fill="#64748b" text-anchor="middle">0.2</text><line x1="408" y1="380" x2="408" y2="385" stroke="#cbd5e1"/><text x="408" y="400" font-size="10" fill="#64748b" text-anchor="middle">0.3</text><line x1="484" y1="380" x2="484" y2="385" stroke="#cbd5e1"/><text x="484" y="400" font-size="10" fill="#64748b" text-anchor="middle">0.4</text><line x1="560" y1="380" x2="560" y2="385" stroke="#cbd5e1"/><text x="560" y="400" font-size="10" fill="#64748b" text-anchor="middle">0.5</text><text x="370" y="430" font-size="11" fill="#334155" font-weight="500" text-anchor="middle">Population Stability Index (PSI)</text></svg>