<svg width="600" height="450" viewBox="0 0 600 450" xmlns="http://www.w3.org/2000/svg" style="background:#ffffff; font-family:'Inter', sans-serif;"><text x="300" y="30" font-size="14" font-weight="bold" fill="#1e293b" text-anchor="middle">LightGBM Global Feature Importance (Split Gain)</text><line x1="180" y1="70" x2="180" y2="380" stroke="#cbd5e1" stroke-width="1.5"/><text x="165" y="97.33333333333333" font-size="11" font-weight="600" fill="#475569" text-anchor="end">spend_ratio_avg</text><rect x="180" y="70" width="349.6" height="46.666666666666664" fill="#6366f1" opacity="0.85" rx="3"/><rect x="180" y="70" width="349.6" height="46.666666666666664" fill="none" stroke="#4f46e5" stroke-width="1" rx="3"/><text x="537.6" y="97.33333333333333" font-size="11" font-weight="bold" fill="#475569">92%</text><text x="165" y="154" font-size="11" font-weight="600" fill="#475569" text-anchor="end">geo_distance_km</text><rect x="180" y="126.66666666666666" width="307.8" height="46.666666666666664" fill="#6366f1" opacity="0.85" rx="3"/><rect x="180" y="126.66666666666666" width="307.8" height="46.666666666666664" fill="none" stroke="#4f46e5" stroke-width="1" rx="3"/><text x="495.8" y="154" font-size="11" font-weight="bold" fill="#475569">81%</text><text x="165" y="210.66666666666666" font-size="11" font-weight="600" fill="#475569" text-anchor="end">TransactionAmt</text><rect x="180" y="183.33333333333331" width="281.2" height="46.666666666666664" fill="#6366f1" opacity="0.85" rx="3"/><rect x="180" y="183.33333333333331" width="281.2" height="46.666666666666664" fill="none" stroke="#4f46e5" stroke-width="1" rx="3"/><text x="469.2" y="210.66666666666666" font-size="11" font-weight="bold" fill="#475569">74%</text><text x="165" y="267.3333333333333" font-size="11" font-weight="600" fill="#475569" text-anchor="end">anomaly_score</text><rect x="180" y="240" width="262.2" height="46.666666666666664" fill="#6366f1" opacity="0.85" rx="3"/><rect x="180" y="240" width="262.2" height="46.666666666666664" fill="none" stroke="#4f46e5" stroke-width="1" rx="3"/><text x="450.2" y="267.3333333333333" font-size="11" font-weight="bold" fill="#475569">69%</text><text x="165" y="323.99999999999994" font-size="11" font-weight="600" fill="#475569" text-anchor="end">hour_of_day</text><rect x="180" y="296.66666666666663" width="220.39999999999998" height="46.666666666666664" fill="#6366f1" opacity="0.85" rx="3"/><rect x="180" y="296.66666666666663" width="220.39999999999998" height="46.666666666666664" fill="none" stroke="#4f46e5" stroke-width="1" rx="3"/><text x="408.4" y="323.99999999999994" font-size="11" font-weight="bold" fill="#475569">58%</text><text x="165" y="380.66666666666663" font-size="11" font-weight="600" fill="#475569" text-anchor="end">day_of_week</text><rect x="180" y="353.3333333333333" width="159.6" height="46.666666666666664" fill="#6366f1" opacity="0.85" rx="3"/><rect x="180" y="353.3333333333333" width="159.6" height="46.666666666666664" fill="none" stroke="#4f46e5" stroke-width="1" rx="3"/><text x="347.6" y="380.66666666666663" font-size="11" font-weight="bold" fill="#475569">42%</text><line x1="180" y1="380" x2="560" y2="380" stroke="#cbd5e1" stroke-width="1.5"/><line x1="180" y1="380" x2="180" y2="385" stroke="#cbd5e1"/><text x="180" y="400" font-size="10" fill="#64748b" text-anchor="middle">0%</text><line x1="275" y1="380" x2="275" y2="385" stroke="#cbd5e1"/><text x="275" y="400" font-size="10" fill="#64748b" text-anchor="middle">25%</text><line x1="370" y1="380" x2="370" y2="385" stroke="#cbd5e1"/><text x="370" y="400" font-size="10" fill="#64748b" text-anchor="middle">50%</text><line x1="465" y1="380" x2="465" y2="385" stroke="#cbd5e1"/><text x="465" y="400" font-size="10" fill="#64748b" text-anchor="middle">75%</text><line x1="560" y1="380" x2="560" y2="385" stroke="#cbd5e1"/><text x="560" y="400" font-size="10" fill="#64748b" text-anchor="middle">100%</text><text x="370" y="430" font-size="11" fill="#334155" font-weight="500" text-anchor="middle">Relative Feature Importance Score</text></svg>