<svg width="600" height="500" viewBox="0 0 600 500" xmlns="http://www.w3.org/2000/svg" style="background:#ffffff; font-family:'Inter', sans-serif;"><rect x="60" y="60" width="480" height="380" fill="#f8fafc" stroke="#e2e8f0" stroke-width="1.5"/><line x1="156" y1="60" x2="156" y2="440" stroke="#e2e8f0" stroke-dasharray="3,3"/><text x="156" y="460" font-size="11" text-anchor="middle" fill="#64748b">0.2</text><line x1="60" y1="364" x2="540" y2="364" stroke="#e2e8f0" stroke-dasharray="3,3"/><text x="50" y="368" font-size="11" text-anchor="end" fill="#64748b">0.2</text><line x1="252" y1="60" x2="252" y2="440" stroke="#e2e8f0" stroke-dasharray="3,3"/><text x="252" y="460" font-size="11" text-anchor="middle" fill="#64748b">0.4</text><line x1="60" y1="288" x2="540" y2="288" stroke="#e2e8f0" stroke-dasharray="3,3"/><text x="50" y="292" font-size="11" text-anchor="end" fill="#64748b">0.4</text><line x1="348.00000000000006" y1="60" x2="348.00000000000006" y2="440" stroke="#e2e8f0" stroke-dasharray="3,3"/><text x="348.00000000000006" y="460" font-size="11" text-anchor="middle" fill="#64748b">0.6</text><line x1="60" y1="211.99999999999997" x2="540" y2="211.99999999999997" stroke="#e2e8f0" stroke-dasharray="3,3"/><text x="50" y="215.99999999999997" font-size="11" text-anchor="end" fill="#64748b">0.6</text><line x1="444" y1="60" x2="444" y2="440" stroke="#e2e8f0" stroke-dasharray="3,3"/><text x="444" y="460" font-size="11" text-anchor="middle" fill="#64748b">0.8</text><line x1="60" y1="136" x2="540" y2="136" stroke="#e2e8f0" stroke-dasharray="3,3"/><text x="50" y="140" font-size="11" text-anchor="end" fill="#64748b">0.8</text><line x1="540" y1="60" x2="540" y2="440" stroke="#e2e8f0" stroke-dasharray="3,3"/><text x="540" y="460" font-size="11" text-anchor="middle" fill="#64748b">1.0</text><line x1="60" y1="60" x2="540" y2="60" stroke="#e2e8f0" stroke-dasharray="3,3"/><text x="50" y="64" font-size="11" text-anchor="end" fill="#64748b">1.0</text><text x="60" y="460" font-size="11" text-anchor="middle" fill="#64748b">0.0</text><text x="50" y="444" font-size="11" text-anchor="end" fill="#64748b">0.0</text><path d="M 60.0,60.0 L 64.8,60.0 L 69.6,60.0 L 74.4,60.0 L 79.2,60.0 L 84.0,60.0 L 88.8,60.0 L 93.6,60.0 L 98.4,60.0 L 103.2,60.0 L 108.0,60.0 L 112.8,60.0 L 117.6,60.0 L 122.4,60.0 L 127.2,60.0 L 132.0,60.0 L 136.8,60.0 L 141.6,60.0 L 146.4,60.0 L 151.2,60.0 L 156.0,60.0 L 160.8,60.0 L 165.6,60.0 L 170.4,60.0 L 175.2,60.0 L 180.0,60.0 L 184.8,60.0 L 189.6,60.0 L 194.4,60.0 L 199.2,60.0 L 204.0,60.0 L 208.8,60.0 L 213.6,60.0 L 218.4,60.0 L 223.2,60.0 L 228.0,60.1 L 232.8,60.1 L 237.6,60.1 L 242.4,60.1 L 247.2,60.1 L 252.0,60.2 L 256.8,60.2 L 261.6,60.3 L 266.4,60.3 L 271.2,60.4 L 276.0,60.5 L 280.8,60.6 L 285.6,60.7 L 290.4,60.8 L 295.2,61.0 L 300.0,61.2 L 304.8,61.4 L 309.6,61.6 L 314.4,61.9 L 319.2,62.2 L 324.0,62.6 L 328.8,63.0 L 333.6,63.5 L 338.4,64.0 L 343.2,64.6 L 348.0,65.3 L 352.8,66.1 L 357.6,67.0 L 362.4,68.0 L 367.2,69.1 L 372.0,70.3 L 376.8,71.7 L 381.6,73.3 L 386.4,75.0 L 391.2,76.9 L 396.0,79.1 L 400.8,81.5 L 405.6,84.1 L 410.4,87.0 L 415.2,90.3 L 420.0,93.8 L 424.8,97.7 L 429.6,102.1 L 434.4,106.8 L 439.2,112.0 L 444.0,117.7 L 448.8,124.0 L 453.6,130.8 L 458.4,138.3 L 463.2,146.5 L 468.0,155.4 L 472.8,165.1 L 477.6,175.7 L 482.4,187.1 L 487.2,199.6 L 492.0,213.2 L 496.8,227.9 L 501.6,243.8 L 506.4,261.0 L 511.2,279.6 L 516.0,299.7 L 520.8,321.5 L 525.6,344.9 L 530.4,370.2 L 535.2,397.4 L 540.0,426.7" fill="none" stroke="#64748b" stroke-width="2.5" /><path d="M 60.0,60.0 L 64.8,60.0 L 69.6,60.0 L 74.4,60.0 L 79.2,60.0 L 84.0,60.1 L 88.8,60.1 L 93.6,60.1 L 98.4,60.2 L 103.2,60.3 L 108.0,60.4 L 112.8,60.5 L 117.6,60.7 L 122.4,60.9 L 127.2,61.1 L 132.0,61.3 L 136.8,61.6 L 141.6,61.9 L 146.4,62.3 L 151.2,62.6 L 156.0,63.1 L 160.8,63.6 L 165.6,64.1 L 170.4,64.7 L 175.2,65.3 L 180.0,66.0 L 184.8,66.7 L 189.6,67.5 L 194.4,68.4 L 199.2,69.3 L 204.0,70.3 L 208.8,71.3 L 213.6,72.4 L 218.4,73.6 L 223.2,74.9 L 228.0,76.2 L 232.8,77.6 L 237.6,79.1 L 242.4,80.7 L 247.2,82.4 L 252.0,84.1 L 256.8,86.0 L 261.6,87.9 L 266.4,89.9 L 271.2,92.0 L 276.0,94.2 L 280.8,96.5 L 285.6,98.9 L 290.4,101.5 L 295.2,104.1 L 300.0,106.8 L 304.8,109.6 L 309.6,112.6 L 314.4,115.6 L 319.2,118.8 L 324.0,122.1 L 328.8,125.5 L 333.6,129.1 L 338.4,132.7 L 343.2,136.5 L 348.0,140.4 L 352.8,144.5 L 357.6,148.6 L 362.4,153.0 L 367.2,157.4 L 372.0,162.0 L 376.8,166.7 L 381.6,171.6 L 386.4,176.6 L 391.2,181.8 L 396.0,187.1 L 400.8,192.6 L 405.6,198.2 L 410.4,204.0 L 415.2,209.9 L 420.0,216.0 L 424.8,222.3 L 429.6,228.7 L 434.4,235.3 L 439.2,242.1 L 444.0,249.0 L 448.8,256.1 L 453.6,263.4 L 458.4,270.8 L 463.2,278.5 L 468.0,286.3 L 472.8,294.3 L 477.6,302.5 L 482.4,310.8 L 487.2,319.4 L 492.0,328.2 L 496.8,337.1 L 501.6,346.3 L 506.4,355.6 L 511.2,365.1 L 516.0,374.9 L 520.8,384.8 L 525.6,395.0 L 530.4,405.3 L 535.2,415.9 L 540.0,426.7" fill="none" stroke="#0ea5e9" stroke-width="2.5" /><path d="M 60.0,60.0 L 64.8,60.0 L 69.6,60.0 L 74.4,60.0 L 79.2,60.0 L 84.0,60.1 L 88.8,60.1 L 93.6,60.2 L 98.4,60.3 L 103.2,60.4 L 108.0,60.5 L 112.8,60.7 L 117.6,60.9 L 122.4,61.1 L 127.2,61.4 L 132.0,61.7 L 136.8,62.0 L 141.6,62.4 L 146.4,62.9 L 151.2,63.3 L 156.0,63.8 L 160.8,64.4 L 165.6,65.0 L 170.4,65.7 L 175.2,66.4 L 180.0,67.2 L 184.8,68.1 L 189.6,69.0 L 194.4,70.0 L 199.2,71.0 L 204.0,72.1 L 208.8,73.3 L 213.6,74.6 L 218.4,75.9 L 223.2,77.3 L 228.0,78.8 L 232.8,80.3 L 237.6,82.0 L 242.4,83.7 L 247.2,85.5 L 252.0,87.4 L 256.8,89.4 L 261.6,91.4 L 266.4,93.6 L 271.2,95.9 L 276.0,98.2 L 280.8,100.7 L 285.6,103.2 L 290.4,105.9 L 295.2,108.6 L 300.0,111.5 L 304.8,114.5 L 309.6,117.6 L 314.4,120.7 L 319.2,124.0 L 324.0,127.5 L 328.8,131.0 L 333.6,134.6 L 338.4,138.4 L 343.2,142.3 L 348.0,146.3 L 352.8,150.4 L 357.6,154.7 L 362.4,159.1 L 367.2,163.6 L 372.0,168.3 L 376.8,173.1 L 381.6,178.0 L 386.4,183.0 L 391.2,188.2 L 396.0,193.6 L 400.8,199.0 L 405.6,204.6 L 410.4,210.4 L 415.2,216.3 L 420.0,222.4 L 424.8,228.6 L 429.6,234.9 L 434.4,241.4 L 439.2,248.1 L 444.0,254.9 L 448.8,261.9 L 453.6,269.0 L 458.4,276.3 L 463.2,283.8 L 468.0,291.4 L 472.8,299.2 L 477.6,307.2 L 482.4,315.3 L 487.2,323.6 L 492.0,332.1 L 496.8,340.8 L 501.6,349.6 L 506.4,358.6 L 511.2,367.8 L 516.0,377.1 L 520.8,386.7 L 525.6,396.4 L 530.4,406.3 L 535.2,416.4 L 540.0,426.7" fill="none" stroke="#ec4899" stroke-width="2.5" /><path d="M 60.0,60.0 L 64.8,60.0 L 69.6,60.0 L 74.4,60.0 L 79.2,60.0 L 84.0,60.1 L 88.8,60.1 L 93.6,60.2 L 98.4,60.2 L 103.2,60.3 L 108.0,60.5 L 112.8,60.6 L 117.6,60.8 L 122.4,61.0 L 127.2,61.2 L 132.0,61.5 L 136.8,61.8 L 141.6,62.2 L 146.4,62.6 L 151.2,63.0 L 156.0,63.5 L 160.8,64.0 L 165.6,64.6 L 170.4,65.2 L 175.2,65.9 L 180.0,66.6 L 184.8,67.4 L 189.6,68.3 L 194.4,69.2 L 199.2,70.2 L 204.0,71.3 L 208.8,72.4 L 213.6,73.6 L 218.4,74.8 L 223.2,76.2 L 228.0,77.6 L 232.8,79.1 L 237.6,80.7 L 242.4,82.3 L 247.2,84.1 L 252.0,85.9 L 256.8,87.8 L 261.6,89.8 L 266.4,91.9 L 271.2,94.1 L 276.0,96.4 L 280.8,98.8 L 285.6,101.3 L 290.4,103.9 L 295.2,106.6 L 300.0,109.4 L 304.8,112.3 L 309.6,115.3 L 314.4,118.4 L 319.2,121.7 L 324.0,125.0 L 328.8,128.5 L 333.6,132.1 L 338.4,135.8 L 343.2,139.7 L 348.0,143.7 L 352.8,147.8 L 357.6,152.0 L 362.4,156.3 L 367.2,160.8 L 372.0,165.5 L 376.8,170.2 L 381.6,175.1 L 386.4,180.2 L 391.2,185.3 L 396.0,190.7 L 400.8,196.1 L 405.6,201.8 L 410.4,207.5 L 415.2,213.5 L 420.0,219.5 L 424.8,225.8 L 429.6,232.2 L 434.4,238.7 L 439.2,245.4 L 444.0,252.3 L 448.8,259.3 L 453.6,266.5 L 458.4,273.9 L 463.2,281.4 L 468.0,289.2 L 472.8,297.0 L 477.6,305.1 L 482.4,313.3 L 487.2,321.8 L 492.0,330.4 L 496.8,339.1 L 501.6,348.1 L 506.4,357.3 L 511.2,366.6 L 516.0,376.1 L 520.8,385.9 L 525.6,395.8 L 530.4,405.9 L 535.2,416.2 L 540.0,426.7" fill="none" stroke="#f59e0b" stroke-width="2.5" /><path d="M 60.0,60.0 L 64.8,60.0 L 69.6,60.0 L 74.4,60.0 L 79.2,60.0 L 84.0,60.0 L 88.8,60.0 L 93.6,60.0 L 98.4,60.0 L 103.2,60.0 L 108.0,60.0 L 112.8,60.0 L 117.6,60.0 L 122.4,60.0 L 127.2,60.0 L 132.0,60.0 L 136.8,60.0 L 141.6,60.0 L 146.4,60.0 L 151.2,60.0 L 156.0,60.0 L 160.8,60.0 L 165.6,60.0 L 170.4,60.0 L 175.2,60.0 L 180.0,60.0 L 184.8,60.0 L 189.6,60.0 L 194.4,60.0 L 199.2,60.0 L 204.0,60.0 L 208.8,60.0 L 213.6,60.0 L 218.4,60.0 L 223.2,60.0 L 228.0,60.0 L 232.8,60.0 L 237.6,60.0 L 242.4,60.0 L 247.2,60.1 L 252.0,60.1 L 256.8,60.1 L 261.6,60.1 L 266.4,60.1 L 271.2,60.2 L 276.0,60.2 L 280.8,60.3 L 285.6,60.3 L 290.4,60.4 L 295.2,60.5 L 300.0,60.6 L 304.8,60.7 L 309.6,60.8 L 314.4,61.0 L 319.2,61.2 L 324.0,61.4 L 328.8,61.6 L 333.6,61.9 L 338.4,62.3 L 343.2,62.7 L 348.0,63.1 L 352.8,63.6 L 357.6,64.2 L 362.4,64.9 L 367.2,65.7 L 372.0,66.6 L 376.8,67.6 L 381.6,68.7 L 386.4,70.0 L 391.2,71.4 L 396.0,73.1 L 400.8,75.0 L 405.6,77.0 L 410.4,79.4 L 415.2,82.0 L 420.0,85.0 L 424.8,88.2 L 429.6,91.9 L 434.4,96.0 L 439.2,100.5 L 444.0,105.6 L 448.8,111.2 L 453.6,117.4 L 458.4,124.3 L 463.2,131.9 L 468.0,140.3 L 472.8,149.6 L 477.6,159.8 L 482.4,171.1 L 487.2,183.5 L 492.0,197.0 L 496.8,211.9 L 501.6,228.3 L 506.4,246.2 L 511.2,265.7 L 516.0,287.1 L 520.8,310.4 L 525.6,335.9 L 530.4,363.6 L 535.2,393.8 L 540.0,426.7" fill="none" stroke="#8b5cf6" stroke-width="2.5" /><text x="300" y="35" font-size="14" font-weight="bold" text-anchor="middle" fill="#1e293b">Precision-Recall (PR) Curve Comparison</text><text x="300" y="485" font-size="12" text-anchor="middle" fill="#334155">Recall (Sensitivity)</text><text x="18" y="250" font-size="12" text-anchor="middle" transform="rotate(-90 18 250)" fill="#334155">Precision</text><rect x="80" y="410" width="12" height="12" fill="#8b5cf6" rx="2"/><text x="100" y="420" font-size="11" fill="#334155" font-weight="500">Stacking Ensemble (PR-AUC = 0.903)</text><rect x="80" y="390" width="12" height="12" fill="#f59e0b" rx="2"/><text x="100" y="400" font-size="11" fill="#334155" font-weight="500">XGBoost (PR-AUC = 0.743)</text><rect x="80" y="370" width="12" height="12" fill="#ec4899" rx="2"/><text x="100" y="380" font-size="11" fill="#334155" font-weight="500">CatBoost (PR-AUC = 0.739)</text><rect x="80" y="350" width="12" height="12" fill="#0ea5e9" rx="2"/><text x="100" y="360" font-size="11" fill="#334155" font-weight="500">LightGBM (PR-AUC = 0.748)</text><rect x="80" y="330" width="12" height="12" fill="#64748b" rx="2"/><text x="100" y="340" font-size="11" fill="#334155" font-weight="500">Logistic Regression (PR-AUC = 0.892)</text></svg>