<svg width="600" height="500" viewBox="0 0 600 500" xmlns="http://www.w3.org/2000/svg" style="background:#ffffff; font-family:'Inter', sans-serif;"><rect x="60" y="60" width="480" height="380" fill="#f8fafc" stroke="#e2e8f0" stroke-width="1.5"/><line x1="156" y1="60" x2="156" y2="440" stroke="#e2e8f0" stroke-dasharray="3,3"/><text x="156" y="460" font-size="11" text-anchor="middle" fill="#64748b">0.2</text><line x1="60" y1="364" x2="540" y2="364" stroke="#e2e8f0" stroke-dasharray="3,3"/><text x="50" y="368" font-size="11" text-anchor="end" fill="#64748b">0.2</text><line x1="252" y1="60" x2="252" y2="440" stroke="#e2e8f0" stroke-dasharray="3,3"/><text x="252" y="460" font-size="11" text-anchor="middle" fill="#64748b">0.4</text><line x1="60" y1="288" x2="540" y2="288" stroke="#e2e8f0" stroke-dasharray="3,3"/><text x="50" y="292" font-size="11" text-anchor="end" fill="#64748b">0.4</text><line x1="348.00000000000006" y1="60" x2="348.00000000000006" y2="440" stroke="#e2e8f0" stroke-dasharray="3,3"/><text x="348.00000000000006" y="460" font-size="11" text-anchor="middle" fill="#64748b">0.6</text><line x1="60" y1="211.99999999999997" x2="540" y2="211.99999999999997" stroke="#e2e8f0" stroke-dasharray="3,3"/><text x="50" y="215.99999999999997" font-size="11" text-anchor="end" fill="#64748b">0.6</text><line x1="444" y1="60" x2="444" y2="440" stroke="#e2e8f0" stroke-dasharray="3,3"/><text x="444" y="460" font-size="11" text-anchor="middle" fill="#64748b">0.8</text><line x1="60" y1="136" x2="540" y2="136" stroke="#e2e8f0" stroke-dasharray="3,3"/><text x="50" y="140" font-size="11" text-anchor="end" fill="#64748b">0.8</text><line x1="540" y1="60" x2="540" y2="440" stroke="#e2e8f0" stroke-dasharray="3,3"/><text x="540" y="460" font-size="11" text-anchor="middle" fill="#64748b">1.0</text><line x1="60" y1="60" x2="540" y2="60" stroke="#e2e8f0" stroke-dasharray="3,3"/><text x="50" y="64" font-size="11" text-anchor="end" fill="#64748b">1.0</text><text x="60" y="460" font-size="11" text-anchor="middle" fill="#64748b">0.0</text><text x="50" y="444" font-size="11" text-anchor="end" fill="#64748b">0.0</text><line x1="60" y1="440" x2="540" y2="60" stroke="#94a3b8" stroke-width="1.5" stroke-dasharray="5,5"/><path d="M 60.0,440.0 L 64.8,202.2 L 69.6,184.8 L 74.4,174.0 L 79.2,166.1 L 84.0,159.9 L 88.8,154.6 L 93.6,150.1 L 98.4,146.1 L 103.2,142.6 L 108.0,139.4 L 112.8,136.4 L 117.6,133.7 L 122.4,131.2 L 127.2,128.9 L 132.0,126.7 L 136.8,124.6 L 141.6,122.7 L 146.4,120.8 L 151.2,119.1 L 156.0,117.4 L 160.8,115.8 L 165.6,114.3 L 170.4,112.8 L 175.2,111.4 L 180.0,110.0 L 184.8,108.7 L 189.6,107.4 L 194.4,106.2 L 199.2,105.0 L 204.0,103.8 L 208.8,102.7 L 213.6,101.6 L 218.4,100.5 L 223.2,99.5 L 228.0,98.5 L 232.8,97.5 L 237.6,96.6 L 242.4,95.6 L 247.2,94.7 L 252.0,93.8 L 256.8,93.0 L 261.6,92.1 L 266.4,91.3 L 271.2,90.5 L 276.0,89.7 L 280.8,88.9 L 285.6,88.1 L 290.4,87.3 L 295.2,86.6 L 300.0,85.9 L 304.8,85.2 L 309.6,84.5 L 314.4,83.8 L 319.2,83.1 L 324.0,82.4 L 328.8,81.8 L 333.6,81.1 L 338.4,80.5 L 343.2,79.9 L 348.0,79.2 L 352.8,78.6 L 357.6,78.0 L 362.4,77.5 L 367.2,76.9 L 372.0,76.3 L 376.8,75.7 L 381.6,75.2 L 386.4,74.6 L 391.2,74.1 L 396.0,73.5 L 400.8,73.0 L 405.6,72.5 L 410.4,72.0 L 415.2,71.5 L 420.0,71.0 L 424.8,70.5 L 429.6,70.0 L 434.4,69.5 L 439.2,69.0 L 444.0,68.5 L 448.8,68.1 L 453.6,67.6 L 458.4,67.1 L 463.2,66.7 L 468.0,66.2 L 472.8,65.8 L 477.6,65.3 L 482.4,64.9 L 487.2,64.5 L 492.0,64.1 L 496.8,63.6 L 501.6,63.2 L 506.4,62.8 L 511.2,62.4 L 516.0,62.0 L 520.8,61.6 L 525.6,61.2 L 530.4,60.8 L 535.2,60.4 L 540.0,60.0" fill="none" stroke="#64748b" stroke-width="2.5" /><path d="M 60.0,440.0 L 64.8,406.8 L 69.6,392.1 L 74.4,380.7 L 79.2,370.9 L 84.0,362.2 L 88.8,354.3 L 93.6,347.1 L 98.4,340.2 L 103.2,333.8 L 108.0,327.7 L 112.8,321.9 L 117.6,316.4 L 122.4,311.0 L 127.2,305.8 L 132.0,300.8 L 136.8,296.0 L 141.6,291.3 L 146.4,286.7 L 151.2,282.3 L 156.0,277.9 L 160.8,273.7 L 165.6,269.6 L 170.4,265.5 L 175.2,261.5 L 180.0,257.6 L 184.8,253.8 L 189.6,250.0 L 194.4,246.3 L 199.2,242.7 L 204.0,239.1 L 208.8,235.6 L 213.6,232.1 L 218.4,228.7 L 223.2,225.4 L 228.0,222.0 L 232.8,218.8 L 237.6,215.5 L 242.4,212.3 L 247.2,209.2 L 252.0,206.1 L 256.8,203.0 L 261.6,200.0 L 266.4,196.9 L 271.2,194.0 L 276.0,191.0 L 280.8,188.1 L 285.6,185.2 L 290.4,182.4 L 295.2,179.5 L 300.0,176.7 L 304.8,174.0 L 309.6,171.2 L 314.4,168.5 L 319.2,165.8 L 324.0,163.1 L 328.8,160.5 L 333.6,157.8 L 338.4,155.2 L 343.2,152.6 L 348.0,150.1 L 352.8,147.5 L 357.6,145.0 L 362.4,142.5 L 367.2,140.0 L 372.0,137.5 L 376.8,135.1 L 381.6,132.6 L 386.4,130.2 L 391.2,127.8 L 396.0,125.4 L 400.8,123.0 L 405.6,120.7 L 410.4,118.3 L 415.2,116.0 L 420.0,113.7 L 424.8,111.4 L 429.6,109.1 L 434.4,106.8 L 439.2,104.6 L 444.0,102.3 L 448.8,100.1 L 453.6,97.9 L 458.4,95.7 L 463.2,93.5 L 468.0,91.3 L 472.8,89.2 L 477.6,87.0 L 482.4,84.9 L 487.2,82.7 L 492.0,80.6 L 496.8,78.5 L 501.6,76.4 L 506.4,74.3 L 511.2,72.2 L 516.0,70.2 L 520.8,68.1 L 525.6,66.1 L 530.4,64.0 L 535.2,62.0 L 540.0,60.0" fill="none" stroke="#0ea5e9" stroke-width="2.5" /><path d="M 60.0,440.0 L 64.8,437.3 L 69.6,434.4 L 74.4,431.3 L 79.2,428.1 L 84.0,424.9 L 88.8,421.6 L 93.6,418.3 L 98.4,415.0 L 103.2,411.6 L 108.0,408.2 L 112.8,404.7 L 117.6,401.3 L 122.4,397.8 L 127.2,394.3 L 132.0,390.7 L 136.8,387.2 L 141.6,383.6 L 146.4,380.1 L 151.2,376.5 L 156.0,372.9 L 160.8,369.2 L 165.6,365.6 L 170.4,361.9 L 175.2,358.3 L 180.0,354.6 L 184.8,350.9 L 189.6,347.2 L 194.4,343.5 L 199.2,339.8 L 204.0,336.1 L 208.8,332.3 L 213.6,328.6 L 218.4,324.9 L 223.2,321.1 L 228.0,317.3 L 232.8,313.5 L 237.6,309.8 L 242.4,306.0 L 247.2,302.2 L 252.0,298.3 L 256.8,294.5 L 261.6,290.7 L 266.4,286.9 L 271.2,283.0 L 276.0,279.2 L 280.8,275.3 L 285.6,271.5 L 290.4,267.6 L 295.2,263.7 L 300.0,259.9 L 304.8,256.0 L 309.6,252.1 L 314.4,248.2 L 319.2,244.3 L 324.0,240.4 L 328.8,236.5 L 333.6,232.6 L 338.4,228.6 L 343.2,224.7 L 348.0,220.8 L 352.8,216.8 L 357.6,212.9 L 362.4,209.0 L 367.2,205.0 L 372.0,201.1 L 376.8,197.1 L 381.6,193.1 L 386.4,189.2 L 391.2,185.2 L 396.0,181.2 L 400.8,177.2 L 405.6,173.2 L 410.4,169.2 L 415.2,165.2 L 420.0,161.2 L 424.8,157.2 L 429.6,153.2 L 434.4,149.2 L 439.2,145.2 L 444.0,141.2 L 448.8,137.1 L 453.6,133.1 L 458.4,129.1 L 463.2,125.1 L 468.0,121.0 L 472.8,117.0 L 477.6,112.9 L 482.4,108.9 L 487.2,104.8 L 492.0,100.8 L 496.8,96.7 L 501.6,92.6 L 506.4,88.6 L 511.2,84.5 L 516.0,80.4 L 520.8,76.3 L 525.6,72.3 L 530.4,68.2 L 535.2,64.1 L 540.0,60.0" fill="none" stroke="#ec4899" stroke-width="2.5" /><path d="M 60.0,440.0 L 64.8,427.9 L 69.6,419.6 L 74.4,412.4 L 79.2,405.8 L 84.0,399.6 L 88.8,393.7 L 93.6,388.0 L 98.4,382.5 L 103.2,377.3 L 108.0,372.1 L 112.8,367.1 L 117.6,362.2 L 122.4,357.4 L 127.2,352.7 L 132.0,348.1 L 136.8,343.5 L 141.6,339.0 L 146.4,334.6 L 151.2,330.3 L 156.0,326.0 L 160.8,321.7 L 165.6,317.6 L 170.4,313.4 L 175.2,309.3 L 180.0,305.3 L 184.8,301.3 L 189.6,297.3 L 194.4,293.4 L 199.2,289.5 L 204.0,285.6 L 208.8,281.8 L 213.6,277.9 L 218.4,274.2 L 223.2,270.4 L 228.0,266.7 L 232.8,263.0 L 237.6,259.4 L 242.4,255.7 L 247.2,252.1 L 252.0,248.5 L 256.8,244.9 L 261.6,241.4 L 266.4,237.9 L 271.2,234.4 L 276.0,230.9 L 280.8,227.4 L 285.6,224.0 L 290.4,220.5 L 295.2,217.1 L 300.0,213.7 L 304.8,210.4 L 309.6,207.0 L 314.4,203.7 L 319.2,200.3 L 324.0,197.0 L 328.8,193.7 L 333.6,190.4 L 338.4,187.2 L 343.2,183.9 L 348.0,180.7 L 352.8,177.4 L 357.6,174.2 L 362.4,171.0 L 367.2,167.8 L 372.0,164.7 L 376.8,161.5 L 381.6,158.4 L 386.4,155.2 L 391.2,152.1 L 396.0,149.0 L 400.8,145.9 L 405.6,142.8 L 410.4,139.7 L 415.2,136.6 L 420.0,133.6 L 424.8,130.5 L 429.6,127.5 L 434.4,124.4 L 439.2,121.4 L 444.0,118.4 L 448.8,115.4 L 453.6,112.4 L 458.4,109.4 L 463.2,106.5 L 468.0,103.5 L 472.8,100.5 L 477.6,97.6 L 482.4,94.7 L 487.2,91.7 L 492.0,88.8 L 496.8,85.9 L 501.6,83.0 L 506.4,80.1 L 511.2,77.2 L 516.0,74.3 L 520.8,71.4 L 525.6,68.6 L 530.4,65.7 L 535.2,62.8 L 540.0,60.0" fill="none" stroke="#f59e0b" stroke-width="2.5" /><path d="M 60.0,440.0 L 64.8,429.2 L 69.6,421.6 L 74.4,414.8 L 79.2,408.5 L 84.0,402.6 L 88.8,396.9 L 93.6,391.5 L 98.4,386.2 L 103.2,381.0 L 108.0,376.0 L 112.8,371.1 L 117.6,366.3 L 122.4,361.6 L 127.2,357.0 L 132.0,352.4 L 136.8,348.0 L 141.6,343.5 L 146.4,339.2 L 151.2,334.9 L 156.0,330.6 L 160.8,326.4 L 165.6,322.2 L 170.4,318.1 L 175.2,314.0 L 180.0,310.0 L 184.8,306.0 L 189.6,302.0 L 194.4,298.1 L 199.2,294.2 L 204.0,290.3 L 208.8,286.5 L 213.6,282.6 L 218.4,278.9 L 223.2,275.1 L 228.0,271.3 L 232.8,267.6 L 237.6,263.9 L 242.4,260.3 L 247.2,256.6 L 252.0,253.0 L 256.8,249.4 L 261.6,245.8 L 266.4,242.2 L 271.2,238.7 L 276.0,235.1 L 280.8,231.6 L 285.6,228.1 L 290.4,224.7 L 295.2,221.2 L 300.0,217.7 L 304.8,214.3 L 309.6,210.9 L 314.4,207.5 L 319.2,204.1 L 324.0,200.7 L 328.8,197.4 L 333.6,194.0 L 338.4,190.7 L 343.2,187.4 L 348.0,184.1 L 352.8,180.8 L 357.6,177.5 L 362.4,174.2 L 367.2,171.0 L 372.0,167.7 L 376.8,164.5 L 381.6,161.3 L 386.4,158.0 L 391.2,154.8 L 396.0,151.6 L 400.8,148.5 L 405.6,145.3 L 410.4,142.1 L 415.2,139.0 L 420.0,135.8 L 424.8,132.7 L 429.6,129.6 L 434.4,126.5 L 439.2,123.4 L 444.0,120.3 L 448.8,117.2 L 453.6,114.1 L 458.4,111.0 L 463.2,108.0 L 468.0,104.9 L 472.8,101.9 L 477.6,98.8 L 482.4,95.8 L 487.2,92.8 L 492.0,89.8 L 496.8,86.7 L 501.6,83.7 L 506.4,80.8 L 511.2,77.8 L 516.0,74.8 L 520.8,71.8 L 525.6,68.9 L 530.4,65.9 L 535.2,62.9 L 540.0,60.0" fill="none" stroke="#8b5cf6" stroke-width="2.5" /><text x="300" y="35" font-size="14" font-weight="bold" text-anchor="middle" fill="#1e293b">ROC Curve Comparison (Sparkov Test)</text><text x="300" y="485" font-size="12" text-anchor="middle" fill="#334155">False Positive Rate (1 - Specificity)</text><text x="18" y="250" font-size="12" text-anchor="middle" transform="rotate(-90 18 250)" fill="#334155">True Positive Rate (Sensitivity)</text><rect x="260" y="410" width="12" height="12" fill="#8b5cf6" rx="2"/><text x="280" y="420" font-size="11" fill="#334155" font-weight="500">Stacking Ensemble (AUC = 0.564, 95% CI: [0.476-0.645])</text><rect x="260" y="390" width="12" height="12" fill="#f59e0b" rx="2"/><text x="280" y="400" font-size="11" fill="#334155" font-weight="500">XGBoost (AUC = 0.572, 95% CI: [0.517-0.633])</text><rect x="260" y="370" width="12" height="12" fill="#ec4899" rx="2"/><text x="280" y="380" font-size="11" fill="#334155" font-weight="500">CatBoost (AUC = 0.481, 95% CI: [0.406-0.553])</text><rect x="260" y="350" width="12" height="12" fill="#0ea5e9" rx="2"/><text x="280" y="360" font-size="11" fill="#334155" font-weight="500">LightGBM (AUC = 0.654, 95% CI: [0.592-0.713])</text><rect x="260" y="330" width="12" height="12" fill="#64748b" rx="2"/><text x="280" y="340" font-size="11" fill="#334155" font-weight="500">Logistic Regression (AUC = 0.908, 95% CI: [0.873-0.938])</text></svg>