<svg width="600" height="500" viewBox="0 0 600 500" xmlns="http://www.w3.org/2000/svg" style="background:#ffffff; font-family:'Inter', sans-serif;"><rect x="60" y="60" width="480" height="380" fill="#f8fafc" stroke="#e2e8f0" stroke-width="1.5"/><line x1="156" y1="60" x2="156" y2="440" stroke="#e2e8f0" stroke-dasharray="3,3"/><text x="156" y="460" font-size="11" text-anchor="middle" fill="#64748b">0.2</text><line x1="60" y1="364" x2="540" y2="364" stroke="#e2e8f0" stroke-dasharray="3,3"/><text x="50" y="368" font-size="11" text-anchor="end" fill="#ef4444">$40k</text><line x1="252" y1="60" x2="252" y2="440" stroke="#e2e8f0" stroke-dasharray="3,3"/><text x="252" y="460" font-size="11" text-anchor="middle" fill="#64748b">0.4</text><line x1="60" y1="288" x2="540" y2="288" stroke="#e2e8f0" stroke-dasharray="3,3"/><text x="50" y="292" font-size="11" text-anchor="end" fill="#ef4444">$80k</text><line x1="348.00000000000006" y1="60" x2="348.00000000000006" y2="440" stroke="#e2e8f0" stroke-dasharray="3,3"/><text x="348.00000000000006" y="460" font-size="11" text-anchor="middle" fill="#64748b">0.6</text><line x1="60" y1="211.99999999999997" x2="540" y2="211.99999999999997" stroke="#e2e8f0" stroke-dasharray="3,3"/><text x="50" y="215.99999999999997" font-size="11" text-anchor="end" fill="#ef4444">$120k</text><line x1="444" y1="60" x2="444" y2="440" stroke="#e2e8f0" stroke-dasharray="3,3"/><text x="444" y="460" font-size="11" text-anchor="middle" fill="#64748b">0.8</text><line x1="60" y1="136" x2="540" y2="136" stroke="#e2e8f0" stroke-dasharray="3,3"/><text x="50" y="140" font-size="11" text-anchor="end" fill="#ef4444">$160k</text><line x1="540" y1="60" x2="540" y2="440" stroke="#e2e8f0" stroke-dasharray="3,3"/><text x="540" y="460" font-size="11" text-anchor="middle" fill="#64748b">1.0</text><line x1="60" y1="60" x2="540" y2="60" stroke="#e2e8f0" stroke-dasharray="3,3"/><text x="50" y="64" font-size="11" text-anchor="end" fill="#ef4444">$200k</text><text x="60" y="460" font-size="11" text-anchor="middle" fill="#64748b">0.0</text><text x="50" y="444" font-size="11" text-anchor="end" fill="#ef4444">$0</text><path d="M 60.0,60.0 L 69.6,60.0 L 79.2,60.0 L 88.8,60.0 L 98.4,60.0 L 108.0,60.0 L 117.6,60.0 L 127.2,60.0 L 136.8,60.0 L 146.4,60.0 L 156.0,60.0 L 165.6,60.0 L 175.2,60.0 L 184.8,60.0 L 194.4,60.0 L 204.0,60.0 L 213.6,60.0 L 223.2,60.0 L 232.8,60.0 L 242.4,60.0 L 252.0,60.0 L 261.6,60.0 L 271.2,60.0 L 280.8,60.0 L 290.4,60.3 L 300.0,127.2 L 309.6,368.2 L 319.2,368.2 L 328.8,368.2 L 338.4,368.2 L 348.0,368.2 L 357.6,368.2 L 367.2,368.2 L 376.8,368.2 L 386.4,368.2 L 396.0,368.2 L 405.6,368.2 L 415.2,368.2 L 424.8,368.2 L 434.4,368.2 L 444.0,368.2 L 453.6,368.2 L 463.2,368.2 L 472.8,368.2 L 482.4,368.2 L 492.0,368.2 L 501.6,368.2 L 511.2,368.2 L 520.8,368.2 L 530.4,368.2 L 540.0,368.2" fill="none" stroke="#ef4444" stroke-width="3" /><circle cx="309.6" cy="368.2" r="6" fill="#ef4444" stroke="#ffffff" stroke-width="2" /><text x="309.6" y="353.2" font-size="11" font-weight="bold" fill="#b91c1c" text-anchor="middle">Optimal Threshold: 0.52</text><text x="309.6" y="366.2" font-size="10" font-weight="bold" fill="#b91c1c" text-anchor="middle">Cost: $37,700</text><text x="300" y="35" font-size="14" font-weight="bold" text-anchor="middle" fill="#1e293b">Operational Cost vs. Classification Threshold</text><text x="300" y="485" font-size="12" text-anchor="middle" fill="#334155">Classification Threshold</text><text x="15" y="250" font-size="12" text-anchor="middle" transform="rotate(-90 15 250)" fill="#ef4444">Total Operational & Loss Cost ($)</text><rect x="320" y="345" width="210" height="85" fill="#f8fafc" stroke="#cbd5e1" rx="4"/><text x="330" y="360" font-size="10" font-weight="bold" fill="#334155">Operational Cost Matrix:</text><text x="330" y="375" font-size="9" fill="#475569">• False Positive (Verification Friction): $10</text><text x="330" y="390" font-size="9" fill="#475569">• False Negative (Fraud Loss): Tx Amount</text><text x="330" y="405" font-size="9" fill="#475569">• True Positive (Verification Call): $5</text><text x="330" y="420" font-size="9" fill="#475569">• True Negative (Correct legit): $0</text></svg>